<?xml version="1.0" encoding="UTF-8"?>
<svg id="Camada_1" data-name="Camada 1" xmlns="http://www.w3.org/2000/svg" viewBox="0 0 470.79 464.71">
  <defs>
    <style>
      .cls-1 {
        fill: #253786;
      }

      .cls-2 {
        fill: #76b72e;
      }
    </style>
  </defs>
  <path class="cls-1" d="M240.4,464.7c-5.01,0-10.02,0-15.03-.83-52.59-3.34-101.83-26.71-139.4-63.44-37.56-36.73-60.1-86.81-63.43-139.4-3.34-51.75,11.69-103.51,42.57-145.24,3.34-5.01,10.01-5.84,14.19-2.51,5,3.34,5.84,10.02,2.5,14.19-57.59,78.47-49.24,188.65,19.2,257.94,68.45,68.45,179.47,76.79,257.93,19.2,5.01-3.34,10.85-2.5,14.19,2.5,3.34,5.01,2.51,10.85-2.51,14.19-37.56,28.38-83.47,43.41-130.21,43.41"/>
  <path class="cls-1" d="M439.06,315.53c-.83,0-2.5,0-3.34-.83-5.84-1.67-8.35-7.51-6.68-13.35,23.38-71.79,5.01-149.42-48.41-202.01C312.19,30.89,201.17,22.54,122.7,80.14c-5,3.34-10.85,2.5-14.19-2.51-3.34-5.01-2.51-10.85,2.51-14.19,41.73-30.89,93.49-45.91,145.24-42.58,52.58,3.34,101.84,26.71,139.4,63.44,29.21,29.21,49.25,65.94,58.43,106.01,9.19,39.23,6.68,79.3-5.84,117.7-.84,5.01-5.01,7.51-9.19,7.51"/>
  <path class="cls-2" d="M446.58,430.73c1.67,1.67,3.34,4.17,3.34,7.51,0,2.51-.83,5.84-3.34,7.52-2.51,1.67-4.17,3.34-7.52,3.34-5.84,0-10.85-5.01-10.85-10.85,0-2.5.83-5.84,3.34-7.51,1.67-1.67,4.18-3.34,7.51-3.34s5.01,1.67,7.52,3.34"/>
  <path class="cls-2" d="M404.84,242.91c1.68,1.67,3.34,4.17,3.34,7.51s-.84,5.84-3.34,7.52c-2.5,1.67-4.17,3.34-7.51,3.34-5.84,0-10.86-5.01-10.86-10.85,0-2.5.84-5.84,3.34-7.51,1.67-1.67,4.18-3.34,7.51-3.34s5.01,1.67,7.51,3.34"/>
  <path class="cls-2" d="M321.37,128.55c1.67,1.67,3.34,4.18,3.34,7.51s-.84,5.84-3.34,7.52c-2.51,1.67-5.01,2.5-7.52,2.5-5.84,0-10.85-5.01-10.85-10.85,0-2.5.83-5.84,3.34-7.51,1.67-1.67,4.18-3.34,7.51-3.34s5.01,1.67,7.52,4.18"/>
  <path class="cls-2" d="M321.37,337.23c1.67,1.67,3.34,4.18,3.34,7.52,0,2.5-.84,5.84-3.34,7.51-2.51,1.67-5.01,2.51-7.52,2.51-5.84,0-10.85-5.01-10.85-10.85,0-2.5.83-5.84,3.34-7.51,1.67-1.67,4.18-3.34,7.51-3.34s5.01,1.67,7.52,4.17"/>
  <path class="cls-2" d="M164.44,149.42c1.68,1.67,3.34,4.17,3.34,7.51s-.84,5.84-3.34,7.51-4.17,3.34-7.51,3.34c-5.84,0-10.85-5.01-10.85-10.85,0-2.51.83-5.85,3.33-7.51,1.67-1.67,4.18-3.34,7.51-3.34s5.84.84,7.51,3.34"/>
  <path class="cls-2" d="M122.7,284.64c1.67,1.67,3.34,4.17,3.34,7.51s-.83,5.84-3.34,7.51c-2.51,1.67-4.17,3.34-7.51,3.34-5.84,0-10.86-5.01-10.86-10.85,0-2.51.84-5.84,3.34-7.51,2.51-1.67,4.18-3.34,7.52-3.34s5.84,1.67,7.51,3.34"/>
  <path class="cls-2" d="M50.08,13.36c1.67,1.67,3.34,4.18,3.34,7.51s-.83,5.85-3.34,7.52-4.17,3.34-7.51,3.34c-5.84,0-10.85-5.01-10.85-10.86,0-2.5.84-5.84,3.33-7.51,1.68-1.67,4.18-3.34,7.52-3.34s5,1.67,7.51,3.34"/>
  <path class="cls-2" d="M273.79,224.55c-.83,0-2.5,0-3.34-.84-5.01-1.67-8.35-8.34-5.84-13.35,2.51-7.52,4.18-15.87,4.18-24.21,0-21.7-10.02-42.57-27.55-58.43-17.52,15.02-27.54,35.89-27.54,58.43,0,8.34,1.67,16.69,4.17,24.21,1.67,5.01-.84,11.68-6.68,13.35-5.01,1.67-11.68-.83-13.36-6.68-3.33-10.01-5.84-20.86-5.01-31.72,0-30.89,15.87-60.93,42.57-80.14,3.34-2.51,8.35-2.51,12.52,0,26.71,20.03,42.57,50.08,42.57,80.14,0,10.85-1.67,20.87-5.84,31.72-2.51,5.01-6.68,7.52-10.85,7.52"/>
  <path class="cls-2" d="M227.04,310.52h0c-26.71,0-50.91-10.02-67.61-27.55-20.87-21.71-29.22-51.75-23.37-83.47.83-4.18,4.16-7.51,9.18-8.35,5.01-.83,10.02-.83,15.03-.83,20.03,0,38.39,5.84,54.25,15.86,5.01,3.34,10.02,7.51,14.19,11.68,16.69,16.7,25.04,40.07,25.04,65.11,0,5.84-.83,12.52-1.67,19.2-.84,4.18-4.17,7.51-9.18,8.35h-15.87,0ZM155.26,210.36c-1.67,22.54,5.01,42.57,19.2,57.6,13.35,14.19,31.71,21.7,52.58,21.7h4.18v-7.51c0-19.2-6.67-37.56-19.2-50.09-3.33-3.34-6.68-6.67-10.85-9.18-12.52-9.18-29.21-13.36-45.91-12.52"/>
  <path class="cls-2" d="M258.77,310.52h0c-5.02,0-10.02,0-15.03-.84-4.18-.83-8.35-4.17-9.18-8.34-.84-6.68-1.67-12.52-1.67-19.2,0-25.05,9.18-47.58,25.04-65.11,3.34-3.34,6.68-6.67,10.85-9.18,15.86-11.68,35.89-18.36,56.77-18.36,5,0,10.02,0,15.02.84,4.18.83,8.35,4.17,9.19,8.34,5.84,31.72-3.35,62.6-23.38,83.48-17.53,18.36-41.73,28.38-67.61,28.38M254.59,289.65c22.54.84,42.57-6.68,56.76-21.7,14.19-15.02,20.86-35.9,19.2-57.6-18.37-.84-35.05,4.17-48.42,14.19-2.51,2.5-5.84,5.01-8.35,7.51-12.52,13.36-19.19,30.89-19.19,50.09-.84,2.5-.84,5.01,0,7.51"/>
  <path class="cls-2" d="M240.4,359.77c-5.84,0-10.85-5.01-10.85-10.85v-50.09c0-5.84,5.01-10.85,10.85-10.85s10.85,5.01,10.85,10.85v50.09c0,6.67-5,10.85-10.85,10.85"/>
  <path class="cls-1" d="M92.65,134.39c-10.85,0-21.7-4.17-29.22-12.52-7.51-7.51-12.51-18.37-12.51-29.22s4.17-21.7,12.51-29.22c7.52-7.51,18.37-12.52,29.22-12.52s21.7,4.17,29.22,12.52c7.51,7.51,12.51,18.37,12.51,29.22s-4.17,21.7-12.51,29.22c-7.52,8.35-17.53,12.52-29.22,12.52M92.65,71.79c-5.84,0-10.85,2.5-15.03,5.84-4.17,4.17-5.84,9.18-5.84,15.03s2.51,10.85,5.84,15.02c4.18,4.18,9.19,5.85,15.03,5.85s10.85-2.51,15.02-5.85c4.17-4.17,5.85-9.18,5.85-15.02s-2.51-10.85-5.85-15.03c-4.17-4.18-9.18-5.84-15.02-5.84"/>
  <path class="cls-1" d="M388.15,429.05c-10.85,0-21.71-4.17-29.22-12.52-7.51-7.52-12.52-18.37-12.52-29.22s4.17-21.7,12.52-29.22c7.51-7.51,18.37-12.52,29.22-12.52s21.7,4.18,29.21,12.52c7.51,7.51,12.52,18.36,12.52,29.22s-4.17,21.7-12.52,29.22c-7.51,8.34-18.37,12.52-29.21,12.52M388.15,366.45c-5.84,0-10.85,2.51-15.03,5.84-4.18,4.17-5.84,9.18-5.84,15.03s2.51,10.85,5.84,15.03c4.18,4.17,9.19,5.84,15.03,5.84s10.85-2.51,15.02-5.84c4.17-4.18,5.84-9.18,5.84-15.03s-2.5-10.85-5.84-15.03c-4.18-3.34-9.18-5.84-15.02-5.84"/>
  <path class="cls-2" d="M31.72,459.1c-17.53,0-31.72-14.19-31.72-31.72s14.19-31.72,31.72-31.72,31.72,14.19,31.72,31.72-14.19,31.72-31.72,31.72M31.72,417.37c-5.84,0-10.85,5.01-10.85,10.85s5.01,10.85,10.85,10.85,10.85-5.01,10.85-10.85-5.01-10.85-10.85-10.85"/>
  <path class="cls-2" d="M434.06,73.46c-20.03,0-36.73-16.69-36.73-36.73S414.03,0,434.06,0s36.73,16.69,36.73,36.73-16.7,36.73-36.73,36.73M434.06,20.87c-8.35,0-15.86,6.68-15.86,15.86s6.67,15.86,15.86,15.86c8.35,0,15.86-6.68,15.86-15.86s-7.51-15.86-15.86-15.86"/>
</svg>