<?xml version="1.0" encoding="UTF-8"?>
<svg id="Camada_1" xmlns="http://www.w3.org/2000/svg" version="1.1" viewBox="0 0 1505.87 465.81">
  <!-- Generator: Adobe Illustrator 29.8.2, SVG Export Plug-In . SVG Version: 2.1.1 Build 3)  -->
  <defs>
    <style>
      .st0 {
        fill-rule: evenodd;
      }

      .st0, .st1 {
        fill: #253786;
      }

      .st2 {
        fill: #76b72e;
      }
    </style>
  </defs>
  <path class="st1" d="M583.37,120.44c-21.16,0-41.22,6.73-55.03,18.45l-5.62,4.77,16.57,27.44,7.78-6.88c8.61-7.61,21.57-12.15,34.68-12.15,17.34,0,25.32,6.85,25.73,22.16h-29.89c-50.13,0-55.54,30.12-55.54,43.07,0,26.32,21.3,43.99,53,43.99,12.88,0,24.13-2.84,33.14-8.23v7.07h33.03v-83.95c0-35.44-21.09-55.77-57.85-55.77M607.5,213.22c-5.34,11.67-15.64,17.83-29.91,17.83-8.24,0-22.05-1.84-22.05-14.2,0-4.23,0-13.05,22.52-13.05h29.44v9.41h0Z"/>
  <path class="st1" d="M240.4,464.7c-5.01,0-10.02,0-15.03-.83-52.59-3.34-101.83-26.71-139.4-63.44-37.56-36.73-60.1-86.81-63.43-139.4-3.34-51.75,11.69-103.51,42.57-145.24,3.34-5.01,10.01-5.84,14.19-2.51,5,3.34,5.84,10.02,2.5,14.19-57.59,78.47-49.24,188.65,19.2,257.94,68.45,68.45,179.47,76.79,257.93,19.2,5.01-3.34,10.85-2.5,14.19,2.5,3.34,5.01,2.51,10.85-2.51,14.19-37.56,28.38-83.47,43.41-130.21,43.41"/>
  <path class="st1" d="M439.06,315.53c-.83,0-2.5,0-3.34-.83-5.84-1.67-8.35-7.51-6.68-13.35,23.38-71.79,5.01-149.42-48.41-202.01C312.19,30.89,201.17,22.54,122.7,80.14c-5,3.34-10.85,2.5-14.19-2.51-3.34-5.01-2.51-10.85,2.51-14.19,41.73-30.89,93.49-45.91,145.24-42.58,52.58,3.34,101.84,26.71,139.4,63.44,29.21,29.21,49.25,65.94,58.43,106.01,9.19,39.23,6.68,79.3-5.84,117.7-.84,5.01-5.01,7.51-9.19,7.51"/>
  <path class="st1" d="M765.68,132.08c-10.85-7.55-24.4-11.65-39.37-11.65-40.34,0-69.63,28.31-69.63,67.32s29.29,67.78,69.63,67.78c14.56,0,27.8-3.93,38.49-11.17-1.52,21.12-12.27,29.86-35.95,29.86-16.29,0-31.99-5.38-42.01-14.4l-7.44-6.7-17.93,26.88,5.31,5.02c13.96,13.2,37.33,21.07,62.53,21.07,46.05,0,69.4-23.35,69.4-69.4v-115.35h-33.03v10.74h0ZM727.93,223.66c-22.31,0-37.3-14.43-37.3-35.91s14.99-35.68,37.3-35.68,37.52,14.34,37.52,35.68-15.43,35.91-37.52,35.91"/>
  <path class="st1" d="M905.85,120.44h-8.66c-16.5,0-28.33,4.15-36.83,10.02v-9.09h-33.03v138.79h33.72v-70.55c0-23.3,11.44-36.14,32.21-36.14.32,0,.67.04,1.04.08.94.08,1.91.15,2.89.15h8.66v-33.26h0Z"/>
  <path class="st1" d="M975.25,120.44c-40.88,0-70.55,29.57-70.55,70.32s29.67,70.55,70.55,70.55,70.32-29.67,70.32-70.55-29.57-70.32-70.32-70.32M975.25,229.44c-21.55,0-36.6-15.91-36.6-38.68s15.05-38.68,36.6-38.68,36.37,15.55,36.37,38.68-14.61,38.68-36.37,38.68"/>
  <path class="st1" d="M1182.16,181.06v70.43h-16.4v-68.82c0-25.63-13.39-38.8-36.48-38.8-26.1,0-42.49,16.17-42.49,43.88v63.74h-16.4V80.14h16.4v71.13c9-14.09,24.94-22.17,45.49-22.17,29.56,0,49.88,17.09,49.88,51.96"/>
  <path class="st1" d="M1336.18,193.07v-68.04h-16.4v63.74c0,11.81-2.92,21.54-8.2,28.85,8.96-6.14,16.71-14.67,24.6-24.54"/>
  <path class="st1" d="M1398.53,80.14h-16.4v60.53c5.03-4.02,10.46-7.67,16.4-10.8v-49.73Z"/>
  <path class="st1" d="M1503.64,206.26c.23-.83.45-1.66.65-2.5.2-.88.37-1.76.54-2.66.2-1.08.36-2.17.5-3.27.09-.72.19-1.43.26-2.15.17-1.87.29-3.76.29-5.68s-.12-3.76-.28-5.61c-.05-.59-.12-1.17-.2-1.76-.15-1.29-.35-2.56-.59-3.83-.11-.62-.21-1.26-.34-1.87-.34-1.55-.73-3.09-1.18-4.6-.29-.96-.62-1.9-.95-2.84-.22-.61-.43-1.22-.67-1.82-.41-1.08-.85-2.15-1.33-3.2-.05-.11-.1-.21-.16-.32-1.15-2.51-2.46-4.92-3.93-7.24h0c-.7-1.12-1.44-2.2-2.21-3.27-.75-1.07-1.52-2.11-2.33-3.11-.04-.06-.09-.11-.14-.17-2.42-2.98-5.12-5.69-8.09-8.1-2.28-1.9-4.72-3.6-7.26-5.17-.3-.18-.6-.37-.9-.54-1.12-.67-2.26-1.31-3.42-1.91-.36-.19-.74-.36-1.11-.54-2-.97-4.06-1.84-6.18-2.6-.61-.22-1.2-.47-1.82-.67-.83-.27-1.67-.48-2.52-.72-.99-.28-1.98-.54-2.99-.77-.77-.17-1.54-.33-2.32-.47-1.19-.22-2.4-.4-3.61-.55-.65-.08-1.29-.17-1.94-.23-1.89-.18-3.8-.29-5.74-.29-6.43,0-13.78.26-18.89,1.31-17.36,4.84-30.93,13.06-42.37,22.9-.09.08-.2.16-.29.24-.08.07-.16.15-.24.21-1.2,1.03-2.36,2.09-3.51,3.16-.52.48-1.04.97-1.56,1.46-.8.77-1.58,1.54-2.36,2.32-.73.73-1.46,1.46-2.17,2.2-.57.59-1.12,1.19-1.67,1.78-.85.91-1.7,1.82-2.53,2.74-.41.46-.81.92-1.21,1.38-.93,1.05-1.85,2.1-2.76,3.17-.29.34-.57.69-.86,1.03-.99,1.18-1.97,2.36-2.94,3.54-.16.2-.32.4-.47.6-3.51,4.34-6.88,8.72-10.17,13.02-4.56,5.96-8.99,11.72-13.5,17.09-.84,1.01-1.69,1.99-2.54,2.97-.16.18-.32.36-.48.54-1.56,1.77-3.14,3.49-4.75,5.15-.14.15-.28.3-.43.45-.71.73-1.43,1.43-2.16,2.14-.4.39-.81.78-1.22,1.16-.71.67-1.42,1.33-2.14,1.97-.43.37-.86.73-1.29,1.1-1.21,1.03-2.44,2.03-3.69,2.98-.53.41-1.06.81-1.6,1.21-.69.51-1.39.99-2.1,1.47-.59.4-1.19.77-1.79,1.15-1.03.65-2.08,1.27-3.14,1.86-.8.44-1.59.88-2.41,1.29-.7.35-1.43.68-2.15,1.01-.7.32-1.42.62-2.14.91-.73.3-1.46.59-2.2.86-1.03.37-2.09.7-3.16,1.02-.95.29-1.94.54-2.92.78-.89.22-1.79.43-2.71.61-.78.15-1.57.29-2.37.42-.97.15-1.95.28-2.95.39-.73.08-1.45.18-2.2.24-1.86.15-3.76.24-5.73.24-1.72,0-3.38-.12-5-.29-19.68-2-30.97-15-30.97-38.72v-68.81h-16.39v70.43c0,33.37,18.64,50.62,47.36,52.05,1.29.07,2.57.14,3.9.14.37,0,.72-.05,1.09-.06v.25c2.39,0,4.71-.12,6.97-.29.81-.07,1.6-.17,2.4-.26,1.4-.15,2.78-.32,4.13-.54.97-.16,1.92-.34,2.86-.53,1.08-.21,2.15-.45,3.2-.71,1.06-.26,2.11-.53,3.14-.83.77-.23,1.53-.48,2.28-.73,16.32-5.34,28.91-15.72,39.95-27.9.1-.11.2-.23.3-.33,4.23-4.68,8.24-9.61,12.15-14.62.29-.37.57-.73.86-1.1,1.82-2.34,3.62-4.69,5.42-7.04,6.7-8.76,13.34-17.3,20.54-24.99.89-.95,1.76-1.94,2.67-2.87-.61,1.8-1.12,3.65-1.57,5.51-.02.07-.03.14-.04.21-.44,1.84-.78,3.71-1.05,5.6h0c-.2,1.37-.36,2.75-.47,4.15-.12,1.46-.19,2.94-.19,4.44,0,1.65.1,3.28.25,4.89.1,1.23.24,2.45.41,3.66h0c.88,6.36,2.72,12.4,5.38,18,.02.04.04.09.06.13,2.67,5.58,6.13,10.7,10.26,15.21h0c4.05,4.43,8.72,8.26,13.88,11.37.04.02.07.04.11.06,4.2,2.52,8.67,4.61,13.44,6.09,6.01,2.07,12.51,3.24,19.46,3.24,28.48,0,50.99-17.04,58.11-43.49.31-.95.56-1.92.82-2.89M1488.74,192.49c-.33,5.93-1.8,11.55-4.19,16.66-.02.03-.03.06-.04.09-.59,1.23-1.22,2.44-1.91,3.61-.04.07-.08.13-.12.2-.67,1.13-1.38,2.22-2.14,3.28-.09.12-.17.23-.26.35-.73,1-1.5,1.97-2.31,2.9-.15.16-.3.32-.44.49-.78.87-1.58,1.71-2.41,2.52-.22.21-.45.4-.67.61-.8.74-1.61,1.46-2.46,2.14-.31.24-.63.47-.94.7-.8.61-1.61,1.21-2.45,1.76-.4.27-.83.5-1.24.76-.78.48-1.57.96-2.39,1.4-.51.27-1.04.5-1.56.75-.76.37-1.51.74-2.28,1.06-.62.26-1.28.47-1.91.7-.71.26-1.42.54-2.15.76-.75.23-1.52.4-2.29.59-.65.16-1.29.35-1.95.49-.93.18-1.87.3-2.82.43-.53.07-1.05.18-1.58.23-1.49.15-3.01.23-4.54.23-24.92,0-45.2-20.28-45.2-45.2s20.28-45.2,45.2-45.2c1.48,0,2.94.08,4.38.22.48.05.95.13,1.43.2.95.12,1.9.25,2.82.43.57.11,1.12.26,1.68.39.81.19,1.63.39,2.42.62.59.18,1.18.37,1.77.57.73.25,1.46.51,2.17.8.6.24,1.2.49,1.79.76.66.3,1.3.61,1.94.94.61.31,1.22.62,1.81.97.57.32,1.13.68,1.69,1.02.62.39,1.24.78,1.84,1.19.46.32.89.66,1.34,1,.66.5,1.33.99,1.96,1.52.13.11.25.24.38.35,2.69,2.33,5.11,4.96,7.2,7.86.1.13.2.27.3.4.62.89,1.21,1.81,1.77,2.75.13.21.26.41.38.63.54.93,1.04,1.88,1.51,2.85.11.23.23.46.33.69.46.99.89,1.99,1.28,3.02.08.22.16.44.24.65.38,1.06.74,2.14,1.04,3.23.05.16.08.32.13.49.31,1.17.59,2.35.81,3.55.44,2.84.71,5.78.71,8.85,0,.59-.06,1.15-.08,1.74"/>
  <path class="st0" d="M1397.71,318.28c0,4.48-.53,8.52-1.6,12.11-1.06,3.59-2.41,6.77-4.03,9.57-1.62,2.8-3.47,5.19-5.55,7.15-2.07,1.96-4.12,3.5-6.14,4.62l24.71,42.36c-2.58,1.24-5.41,2.32-8.49,3.28-3.09.95-6.7,1.43-10.84,1.43-5.6,0-10.17-.78-13.7-2.35-3.53-1.57-6.64-4.54-9.33-8.91l-14.12-27.56h-2.19v36.64h-33.95v-111.77c5.94-.67,11.99-1.15,18.15-1.43s11.37-.42,15.63-.42c17.37,0,30.28,2.89,38.75,8.66,8.46,5.77,12.69,14.65,12.69,26.64M1362.08,321.64h0c0-5.04-1.01-8.91-3.03-11.6s-4.87-4.03-8.57-4.03c-.56,0-1.06.03-1.51.09-.45.05-.9.08-1.35.08-.45.12-.9.17-1.35.17v31.93h4.21c4.26,0,7.26-1.62,8.99-4.87,1.74-3.25,2.6-7.17,2.6-11.77"/>
  <path class="st0" d="M1469.06,397.45h-37.48l-35.97-111.94c.78-.34,1.99-.65,3.61-.93,1.62-.27,3.39-.55,5.3-.83,1.9-.28,3.78-.48,5.63-.59s3.45-.17,4.79-.17c11.54,0,18.38,4.76,20.51,14.29l14.79,64.04h1.18l15.47-63.03c1.12-4.6,3.33-8.29,6.64-11.09,3.3-2.8,7.82-4.2,13.53-4.2,2.91,0,5.88.22,8.91.67,3.02.45,6.32,1.12,9.91,2.02l-36.81,111.77h-.01Z"/>
  <path class="st0" d="M1104.37,316.74v-35.23h-33.95l-.04,9.33c17.52-.74,29.85,3.84,33.98,25.9"/>
  <path class="st0" d="M1219.72,347.19c0-2.46-.28-4.43-.84-5.88-.56-1.46-2.08-2.19-4.54-2.19s-4.23.53-5.29,1.6c-1.07,1.06-1.6,2.21-1.6,3.45v52.44h-33.78v-80.35c1.01-.22,2.19-.44,3.53-.67,1.23-.22,2.63-.39,4.2-.51,1.57-.11,3.36-.17,5.38-.17,5.04,0,9.16.76,12.35,2.27,3.19,1.51,5.35,3.56,6.47,6.14,1.35-2.35,3.84-4.62,7.48-6.81s8.54-3.27,14.71-3.27c6.95,0,12.44,1.68,16.47,5.04,4.04,3.36,6.67,7.79,7.9,13.28.33,1.23.59,2.67.76,4.29s.28,3.25.34,4.87c.05,1.62.11,3.22.17,4.79s.08,2.92.08,4.03v46.39c-1.12.45-2.3.84-3.53,1.18-1.12.22-2.44.45-3.95.67s-3.17.33-4.96.33c-5.16,0-9.16-.61-12.02-1.85-2.86-1.23-4.98-2.85-6.39-4.87-1.4-2.02-2.24-4.34-2.52-6.98-.28-2.63-.42-5.41-.42-8.32v-28.91h0Z"/>
  <path class="st1" d="M1161.69,291.06c-1.35-2.25-3.06-3.95-5.13-5.13-2.08-1.18-4.35-1.96-6.81-2.35-2.46-.39-4.77-.59-6.89-.59-1.13,0-2.41.06-3.87.17-1.46.12-2.85.28-4.2.51-1.57.23-3.19.4-4.87.51v67.06c0,2.58-.08,4.95-.25,7.14s-.43,4-.76,5.46c-.9,3.25-2.32,5.52-4.28,6.81-1.97,1.29-4.29,1.93-6.98,1.93-3.59,0-6.28-.9-8.07-2.69-1.79-1.79-3.08-3.87-3.86-6.22-.9-3.03-1.35-7.17-1.35-12.44h0s-.01,0-.01,0v-34.48c-4.39-20.71-16.57-23.14-33.78-22.26v55.73c0,1.91.06,4.2.17,6.89.12,2.69.28,5.1.51,7.23.78,5.71,2.2,10.72,4.28,15.04s4.96,7.96,8.66,10.93c3.69,2.97,8.29,5.18,13.78,6.64,5.49,1.46,11.71,2.19,19.33,2.19s14.21-.9,19.75-2.69c5.55-1.79,10.17-4.26,13.87-7.4,3.7-3.14,6.53-6.78,8.49-10.93,1.95-4.14,3.16-8.56,3.61-13.27.23-2.57.4-5.09.51-7.56.11-2.46.17-4.82.17-7.06v-50.43c0-3.59-.68-6.5-2.02-8.74Z"/>
  <path class="st0" d="M1294.06,290.38c0,4.82-1.57,8.63-4.71,11.43s-7.06,4.2-11.77,4.2-8.63-1.4-11.77-4.2c-3.13-2.8-4.7-6.61-4.7-11.43s1.57-8.66,4.7-11.51c3.14-2.86,7.06-4.29,11.77-4.29s8.62,1.43,11.77,4.29c3.14,2.86,4.71,6.7,4.71,11.51M1295.24,395.93h0c-4.57,1.46-8.64,2.19-12.21,2.19-5.13,0-9.12-.62-11.96-1.85-2.85-1.23-4.96-2.86-6.36-4.88-1.4-2.02-2.23-4.34-2.51-6.98-.28-2.63-.42-5.4-.42-8.32v-60l4.18-.51c1.23-.22,2.59-.39,4.1-.51,1.51-.11,2.98-.17,4.43-.17,2.67,0,5.27.25,7.78.75,2.51.51,4.71,1.4,6.6,2.69,1.9,1.29,3.43,3.08,4.6,5.38,1.17,2.29,1.76,5.24,1.76,8.82v63.39h0Z"/>
  <path class="st2" d="M446.58,430.73c1.67,1.67,3.34,4.17,3.34,7.51,0,2.51-.83,5.84-3.34,7.52-2.51,1.67-4.17,3.34-7.52,3.34-5.84,0-10.85-5.01-10.85-10.85,0-2.5.83-5.84,3.34-7.51,1.67-1.67,4.18-3.34,7.51-3.34s5.01,1.67,7.52,3.34"/>
  <path class="st2" d="M404.84,242.91c1.68,1.67,3.34,4.17,3.34,7.51s-.84,5.84-3.34,7.52c-2.5,1.67-4.17,3.34-7.51,3.34-5.84,0-10.86-5.01-10.86-10.85,0-2.5.84-5.84,3.34-7.51,1.67-1.67,4.18-3.34,7.51-3.34s5.01,1.67,7.51,3.34"/>
  <path class="st2" d="M321.37,128.55c1.67,1.67,3.34,4.18,3.34,7.51s-.84,5.84-3.34,7.52c-2.51,1.67-5.01,2.5-7.52,2.5-5.84,0-10.85-5.01-10.85-10.85,0-2.5.83-5.84,3.34-7.51,1.67-1.67,4.18-3.34,7.51-3.34s5.01,1.67,7.52,4.18"/>
  <path class="st2" d="M321.37,337.23c1.67,1.67,3.34,4.18,3.34,7.52,0,2.5-.84,5.84-3.34,7.51-2.51,1.67-5.01,2.51-7.52,2.51-5.84,0-10.85-5.01-10.85-10.85,0-2.5.83-5.84,3.34-7.51,1.67-1.67,4.18-3.34,7.51-3.34s5.01,1.67,7.52,4.17"/>
  <path class="st2" d="M164.44,149.42c1.68,1.67,3.34,4.17,3.34,7.51s-.84,5.84-3.34,7.51-4.17,3.34-7.51,3.34c-5.84,0-10.85-5.01-10.85-10.85,0-2.51.83-5.85,3.33-7.51,1.67-1.67,4.18-3.34,7.51-3.34s5.84.84,7.51,3.34"/>
  <path class="st2" d="M122.7,284.64c1.67,1.67,3.34,4.17,3.34,7.51s-.83,5.84-3.34,7.51c-2.51,1.67-4.17,3.34-7.51,3.34-5.84,0-10.86-5.01-10.86-10.85,0-2.51.84-5.84,3.34-7.51,2.51-1.67,4.18-3.34,7.52-3.34s5.84,1.67,7.51,3.34"/>
  <path class="st2" d="M50.08,13.36c1.67,1.67,3.34,4.18,3.34,7.51s-.83,5.85-3.34,7.52-4.17,3.34-7.51,3.34c-5.84,0-10.85-5.01-10.85-10.86,0-2.5.84-5.84,3.33-7.51,1.68-1.67,4.18-3.34,7.52-3.34s5,1.67,7.51,3.34"/>
  <path class="st2" d="M273.79,224.55c-.83,0-2.5,0-3.34-.84-5.01-1.67-8.35-8.34-5.84-13.35,2.51-7.52,4.18-15.87,4.18-24.21,0-21.7-10.02-42.57-27.55-58.43-17.52,15.02-27.54,35.89-27.54,58.43,0,8.34,1.67,16.69,4.17,24.21,1.67,5.01-.84,11.68-6.68,13.35-5.01,1.67-11.68-.83-13.36-6.68-3.33-10.01-5.84-20.86-5.01-31.72,0-30.89,15.87-60.93,42.57-80.14,3.34-2.51,8.35-2.51,12.52,0,26.71,20.03,42.57,50.08,42.57,80.14,0,10.85-1.67,20.87-5.84,31.72-2.51,5.01-6.68,7.52-10.85,7.52"/>
  <path class="st2" d="M227.04,310.52h0c-26.71,0-50.91-10.02-67.61-27.55-20.87-21.71-29.22-51.75-23.37-83.47.83-4.18,4.16-7.51,9.18-8.35,5.01-.83,10.02-.83,15.03-.83,20.03,0,38.39,5.84,54.25,15.86,5.01,3.34,10.02,7.51,14.19,11.68,16.69,16.7,25.04,40.07,25.04,65.11,0,5.84-.83,12.52-1.67,19.2-.84,4.18-4.17,7.51-9.18,8.35h-15.87,0ZM155.26,210.36c-1.67,22.54,5.01,42.57,19.2,57.6,13.35,14.19,31.71,21.7,52.58,21.7h4.18v-7.51c0-19.2-6.67-37.56-19.2-50.09-3.33-3.34-6.68-6.67-10.85-9.18-12.52-9.18-29.21-13.36-45.91-12.52"/>
  <path class="st2" d="M258.77,310.52h0c-5.02,0-10.02,0-15.03-.84-4.18-.83-8.35-4.17-9.18-8.34-.84-6.68-1.67-12.52-1.67-19.2,0-25.05,9.18-47.58,25.04-65.11,3.34-3.34,6.68-6.67,10.85-9.18,15.86-11.68,35.89-18.36,56.77-18.36,5,0,10.02,0,15.02.84,4.18.83,8.35,4.17,9.19,8.34,5.84,31.72-3.35,62.6-23.38,83.48-17.53,18.36-41.73,28.38-67.61,28.38M254.59,289.65c22.54.84,42.57-6.68,56.76-21.7,14.19-15.02,20.86-35.9,19.2-57.6-18.37-.84-35.05,4.17-48.42,14.19-2.51,2.5-5.84,5.01-8.35,7.51-12.52,13.36-19.19,30.89-19.19,50.09-.84,2.5-.84,5.01,0,7.51"/>
  <path class="st2" d="M240.4,359.77c-5.84,0-10.85-5.01-10.85-10.85v-50.09c0-5.84,5.01-10.85,10.85-10.85s10.85,5.01,10.85,10.85v50.09c0,6.67-5,10.85-10.85,10.85"/>
  <path class="st1" d="M92.65,134.39c-10.85,0-21.7-4.17-29.22-12.52-7.51-7.51-12.51-18.37-12.51-29.22s4.17-21.7,12.51-29.22c7.52-7.51,18.37-12.52,29.22-12.52s21.7,4.17,29.22,12.52c7.51,7.51,12.51,18.37,12.51,29.22s-4.17,21.7-12.51,29.22c-7.52,8.35-17.53,12.52-29.22,12.52M92.65,71.79c-5.84,0-10.85,2.5-15.03,5.84-4.17,4.17-5.84,9.18-5.84,15.03s2.51,10.85,5.84,15.02c4.18,4.18,9.19,5.85,15.03,5.85s10.85-2.51,15.02-5.85c4.17-4.17,5.85-9.18,5.85-15.02s-2.51-10.85-5.85-15.03c-4.17-4.18-9.18-5.84-15.02-5.84"/>
  <path class="st1" d="M388.15,429.05c-10.85,0-21.71-4.17-29.22-12.52-7.51-7.52-12.52-18.37-12.52-29.22s4.17-21.7,12.52-29.22c7.51-7.51,18.37-12.52,29.22-12.52s21.7,4.18,29.21,12.52c7.51,7.51,12.52,18.36,12.52,29.22s-4.17,21.7-12.52,29.22c-7.51,8.34-18.37,12.52-29.21,12.52M388.15,366.45c-5.84,0-10.85,2.51-15.03,5.84-4.18,4.17-5.84,9.18-5.84,15.03s2.51,10.85,5.84,15.03c4.18,4.17,9.19,5.84,15.03,5.84s10.85-2.51,15.02-5.84c4.17-4.18,5.84-9.18,5.84-15.03s-2.5-10.85-5.84-15.03c-4.18-3.34-9.18-5.84-15.02-5.84"/>
  <path class="st2" d="M31.72,459.1c-17.53,0-31.72-14.19-31.72-31.72s14.19-31.72,31.72-31.72,31.72,14.19,31.72,31.72-14.19,31.72-31.72,31.72M31.72,417.37c-5.84,0-10.85,5.01-10.85,10.85s5.01,10.85,10.85,10.85,10.85-5.01,10.85-10.85-5.01-10.85-10.85-10.85"/>
  <path class="st2" d="M434.06,73.46c-20.03,0-36.73-16.69-36.73-36.73S414.03,0,434.06,0s36.73,16.69,36.73,36.73-16.7,36.73-36.73,36.73M434.06,20.87c-8.35,0-15.86,6.68-15.86,15.86s6.67,15.86,15.86,15.86c8.35,0,15.86-6.68,15.86-15.86s-7.51-15.86-15.86-15.86"/>
  <path class="st1" d="M536.01,457.11c-3.7,0-6.78-1.21-9.25-3.62-2.46-2.42-3.69-5.41-3.69-9s1.23-6.58,3.69-9c2.46-2.41,5.55-3.62,9.25-3.62,3.19,0,5.94.92,8.26,2.77,2.32,1.86,3.78,4.23,4.39,7.13h-6.47c-.49-1.23-1.3-2.21-2.41-2.94-1.12-.73-2.38-1.1-3.77-1.1-1.91,0-3.5.64-4.78,1.93-1.29,1.29-1.94,2.89-1.94,4.83s.64,3.54,1.94,4.83c1.28,1.28,2.88,1.93,4.78,1.93,1.39,0,2.65-.37,3.77-1.1,1.11-.73,1.92-1.71,2.41-2.93h6.47c-.61,2.9-2.07,5.27-4.39,7.12s-5.08,2.77-8.26,2.77"/>
  <polygon class="st1" points="568.33 450.96 578.76 450.96 578.76 456.69 562.24 456.69 562.24 432.29 578.58 432.29 578.58 438.02 568.33 438.02 568.33 441.56 577.45 441.56 577.45 447.28 568.33 447.28 568.33 450.96"/>
  <polygon class="st1" points="607.9 432.29 613.97 432.29 613.97 456.69 607.9 456.69 598.74 442.93 598.74 456.69 592.65 456.69 592.65 432.29 598.74 432.29 607.9 446.08 607.9 432.29"/>
  <polygon class="st1" points="645.97 432.29 645.97 438.02 639.82 438.02 639.82 456.69 633.74 456.69 633.74 438.02 627.58 438.02 627.58 432.29 645.97 432.29"/>
  <path class="st1" d="M678.53,450.96h1.13v5.73h-1.77c-4.2,0-7.15-1.6-8.88-4.81l-1.8-3.15h-1.52v7.96h-6.09v-24.39h11.08c2.47,0,4.55.79,6.22,2.39,1.68,1.59,2.51,3.59,2.51,5.99,0,1.75-.48,3.28-1.44,4.61-.97,1.34-2.27,2.3-3.9,2.88l.74,1.03c.85,1.18,2.08,1.77,3.72,1.77M665.69,438.02v5.41h4.85c.75,0,1.38-.26,1.89-.78s.76-1.17.76-1.95-.25-1.39-.76-1.91-1.14-.78-1.89-.78h-4.85Z"/>
  <path class="st1" d="M704.73,457.11c-3.7,0-6.78-1.21-9.25-3.62-2.46-2.42-3.69-5.41-3.69-9s1.23-6.58,3.69-9c2.46-2.41,5.55-3.62,9.25-3.62s6.75,1.21,9.23,3.62c2.47,2.42,3.71,5.41,3.71,9s-1.23,6.58-3.71,9c-2.48,2.42-5.56,3.62-9.23,3.62M704.73,451.24c1.89,0,3.47-.65,4.76-1.93,1.28-1.29,1.92-2.89,1.92-4.83s-.64-3.54-1.92-4.83c-1.29-1.29-2.88-1.93-4.76-1.93s-3.5.64-4.78,1.93c-1.29,1.29-1.94,2.89-1.94,4.83s.64,3.54,1.94,4.83c1.28,1.28,2.88,1.93,4.78,1.93"/>
  <path class="st1" d="M759.25,432.29c3.58,0,6.55,1.16,8.94,3.48,2.37,2.32,3.57,5.23,3.57,8.71s-1.19,6.39-3.57,8.71c-2.39,2.32-5.37,3.48-8.94,3.48h-9.66v-24.39h9.66ZM759.11,450.96c1.84,0,3.36-.62,4.57-1.86,1.22-1.24,1.82-2.77,1.82-4.61s-.6-3.38-1.82-4.61c-1.22-1.24-2.73-1.86-4.57-1.86h-3.44v12.94h3.44Z"/>
  <polygon class="st1" points="791.67 450.96 802.1 450.96 802.1 456.69 785.58 456.69 785.58 432.29 801.92 432.29 801.92 438.02 791.67 438.02 791.67 441.56 800.79 441.56 800.79 447.28 791.67 447.28 791.67 450.96"/>
  <rect class="st1" x="834.12" y="432.29" width="6.09" height="24.39"/>
  <polygon class="st1" points="870.4 432.29 876.48 432.29 876.48 456.69 870.4 456.69 861.25 442.93 861.25 456.69 855.16 456.69 855.16 432.29 861.25 432.29 870.4 446.08 870.4 432.29"/>
  <path class="st1" d="M903.24,457.11c-3.7,0-6.78-1.21-9.25-3.62-2.46-2.42-3.69-5.41-3.69-9s1.23-6.58,3.69-9c2.46-2.41,5.55-3.62,9.25-3.62s6.75,1.21,9.23,3.62c2.47,2.42,3.71,5.41,3.71,9s-1.23,6.58-3.71,9c-2.48,2.42-5.56,3.62-9.23,3.62M903.24,451.24c1.89,0,3.47-.65,4.76-1.93,1.28-1.29,1.92-2.89,1.92-4.83s-.64-3.54-1.92-4.83c-1.29-1.29-2.88-1.93-4.76-1.93s-3.5.64-4.78,1.93c-1.29,1.29-1.94,2.89-1.94,4.83s.64,3.54,1.94,4.83c1.28,1.28,2.88,1.93,4.78,1.93"/>
  <path class="st1" d="M949.67,432.29c.38,1.86-.14,4.67-1.56,8.41l-6.15,15.98h-6.23l-9.44-24.39h6.79l5.8,16.22,3.39-9.41c1.04-2.85,1.38-5.13,1.02-6.82h6.38Z"/>
  <path class="st1" d="M977.11,456.69l-1.31-3.85h-9.33l-1.31,3.85h-6.54l8.98-24.39h7.17l8.98,24.39h-6.64,0ZM968.33,447.25h5.58l-2.79-8.24-2.79,8.24h0Z"/>
  <path class="st1" d="M1006.83,451.24c1.4,0,2.65-.37,3.77-1.1,1.11-.73,1.92-1.71,2.41-2.93h6.47c-.52,2.57-1.74,4.74-3.67,6.51-1.94,1.77-4.26,2.85-6.97,3.25l-.63.71c.96.14,1.75.58,2.39,1.33.62.74.93,1.62.93,2.63,0,1.18-.43,2.17-1.31,2.97-.87.8-1.96,1.2-3.28,1.2-1.23,0-2.27-.37-3.15-1.11-.87-.74-1.34-1.67-1.42-2.78h3.43c.16.54.54.82,1.13.82.33,0,.61-.11.85-.32.24-.21.35-.47.35-.78,0-.33-.11-.6-.35-.81s-.52-.32-.85-.32c-.4,0-.73.14-.95.43l-3.19-1.42,2.08-2.55c-3.2-.42-5.84-1.8-7.89-4.12-2.07-2.32-3.1-5.11-3.1-8.36,0-3.58,1.23-6.58,3.69-9,2.46-2.41,5.55-3.62,9.25-3.62,3.19,0,5.94.93,8.26,2.77,2.32,1.85,3.78,4.23,4.39,7.13h-6.47c-.49-1.23-1.3-2.21-2.41-2.94-1.12-.73-2.37-1.09-3.77-1.09-1.91,0-3.5.64-4.78,1.93-1.29,1.29-1.93,2.89-1.93,4.83s.64,3.54,1.93,4.83c1.28,1.28,2.88,1.93,4.78,1.93"/>
  <path class="st1" d="M1047.88,456.69l-1.31-3.85h-9.33l-1.31,3.85h-6.54l8.98-24.39h7.17l8.98,24.39h-6.64,0ZM1040.38,429.25c-.3,0-.56.11-.76.32-.21.21-.3.47-.3.78h-4c0-1.65.38-3,1.11-4.05.74-1.05,1.82-1.57,3.23-1.57.71,0,1.45.2,2.23.58.78.39,1.28.58,1.53.58.3,0,.56-.11.77-.32.21-.21.32-.47.32-.78h3.99c0,1.67-.37,3.02-1.11,4.05-.74,1.02-1.82,1.54-3.24,1.54-.73,0-1.48-.19-2.26-.57-.77-.38-1.28-.57-1.52-.57M1039.11,447.25h5.58l-2.79-8.24-2.79,8.24h0Z"/>
  <path class="st1" d="M1077.61,457.11c-3.7,0-6.78-1.21-9.25-3.62-2.46-2.42-3.69-5.41-3.69-9s1.23-6.58,3.69-9c2.46-2.41,5.55-3.62,9.25-3.62s6.75,1.21,9.23,3.62c2.47,2.42,3.71,5.41,3.71,9s-1.23,6.58-3.71,9-5.56,3.62-9.23,3.62M1077.61,451.24c1.89,0,3.47-.65,4.76-1.93,1.28-1.29,1.92-2.89,1.92-4.83s-.64-3.54-1.92-4.83c-1.29-1.29-2.88-1.93-4.76-1.93s-3.5.64-4.78,1.93c-1.29,1.29-1.94,2.89-1.94,4.83s.64,3.54,1.94,4.83c1.28,1.28,2.88,1.93,4.78,1.93"/>
  <polygon class="st1" points="1128.56 450.96 1138.99 450.96 1138.99 456.69 1122.47 456.69 1122.47 432.29 1138.81 432.29 1138.81 438.02 1128.56 438.02 1128.56 441.56 1137.68 441.56 1137.68 447.28 1128.56 447.28 1128.56 450.96"/>
  <polygon class="st1" points="1188.02 432.29 1188.02 438.02 1181.87 438.02 1181.87 456.69 1175.79 456.69 1175.79 438.02 1169.64 438.02 1169.64 432.29 1188.02 432.29"/>
  <polygon class="st1" points="1207.76 450.96 1218.19 450.96 1218.19 456.69 1201.67 456.69 1201.67 432.29 1218.01 432.29 1218.01 438.02 1207.76 438.02 1207.76 441.56 1216.88 441.56 1216.88 447.28 1207.76 447.28 1207.76 450.96"/>
  <path class="st1" d="M1243.74,457.11c-3.7,0-6.78-1.21-9.25-3.62-2.46-2.42-3.69-5.41-3.69-9s1.23-6.58,3.69-9c2.46-2.41,5.55-3.62,9.25-3.62,3.19,0,5.94.92,8.26,2.77,2.32,1.86,3.78,4.23,4.39,7.13h-6.47c-.49-1.23-1.3-2.21-2.41-2.94-1.12-.73-2.38-1.1-3.77-1.1-1.91,0-3.5.64-4.78,1.93-1.29,1.29-1.94,2.89-1.94,4.83s.64,3.54,1.94,4.83c1.28,1.28,2.88,1.93,4.78,1.93,1.4,0,2.65-.37,3.77-1.1,1.11-.73,1.92-1.71,2.41-2.93h6.47c-.61,2.9-2.07,5.27-4.39,7.12-2.32,1.85-5.08,2.77-8.26,2.77"/>
  <polygon class="st1" points="1285.22 432.29 1291.29 432.29 1291.29 456.69 1285.22 456.69 1276.06 442.93 1276.06 456.69 1269.98 456.69 1269.98 432.29 1276.06 432.29 1285.22 446.08 1285.22 432.29"/>
  <path class="st1" d="M1318.05,457.11c-3.7,0-6.78-1.21-9.25-3.62-2.46-2.42-3.69-5.41-3.69-9s1.23-6.58,3.69-9c2.46-2.41,5.55-3.62,9.25-3.62s6.75,1.21,9.23,3.62c2.47,2.42,3.71,5.41,3.71,9s-1.23,6.58-3.71,9-5.56,3.62-9.23,3.62M1318.05,451.24c1.89,0,3.47-.65,4.76-1.93,1.28-1.29,1.92-2.89,1.92-4.83s-.64-3.54-1.92-4.83c-1.29-1.29-2.88-1.93-4.76-1.93s-3.5.64-4.78,1.93c-1.29,1.29-1.94,2.89-1.94,4.83s.64,3.54,1.94,4.83c1.28,1.28,2.88,1.93,4.78,1.93"/>
  <polygon class="st1" points="1350.87 450.96 1360.24 450.96 1360.24 456.69 1344.79 456.69 1344.79 432.29 1350.87 432.29 1350.87 450.96"/>
  <path class="st1" d="M1384.35,457.11c-3.7,0-6.78-1.21-9.25-3.62-2.46-2.42-3.69-5.41-3.69-9s1.23-6.58,3.69-9c2.46-2.41,5.55-3.62,9.25-3.62s6.75,1.21,9.23,3.62c2.47,2.42,3.71,5.41,3.71,9s-1.23,6.58-3.71,9-5.56,3.62-9.23,3.62M1384.35,451.24c1.89,0,3.47-.65,4.76-1.93,1.28-1.29,1.92-2.89,1.92-4.83s-.64-3.54-1.92-4.83c-1.29-1.29-2.88-1.93-4.76-1.93s-3.5.64-4.78,1.93c-1.29,1.29-1.94,2.89-1.94,4.83s.64,3.54,1.94,4.83c1.28,1.28,2.88,1.93,4.78,1.93"/>
  <path class="st1" d="M1423.55,442.44h11.71v14.25h-5.12v-2.55c-1.72,1.98-4.15,2.97-7.29,2.97-3.7,0-6.78-1.21-9.24-3.62-2.46-2.42-3.69-5.42-3.69-9s1.22-6.58,3.69-9c2.46-2.42,5.55-3.62,9.24-3.62,2.92,0,5.52.79,7.76,2.37,2.26,1.58,3.69,3.58,4.3,6.01h-6.79c-1.22-1.67-2.98-2.51-5.27-2.51-1.9,0-3.5.64-4.78,1.93-1.29,1.29-1.93,2.89-1.93,4.83s.64,3.54,1.93,4.83c1.28,1.28,2.88,1.93,4.78,1.93,1.3,0,2.44-.3,3.43-.89.99-.59,1.73-1.39,2.22-2.41h-4.95v-5.51h0Z"/>
  <rect class="st1" x="1449.61" y="432.29" width="6.09" height="24.39"/>
  <path class="st1" d="M1486.74,456.69l-1.31-3.85h-9.33l-1.31,3.85h-6.54l8.98-24.39h7.17l8.98,24.39h-6.64,0ZM1477.97,447.25h5.58l-2.79-8.24-2.79,8.24h0Z"/>
</svg>